<?xml version="1.0" encoding="UTF-8"?>
<svg id="Layer_2" data-name="Layer 2" xmlns="http://www.w3.org/2000/svg" xmlns:xlink="http://www.w3.org/1999/xlink" viewBox="0 0 610 30">
  <defs>
    <style>
      .cls-1 {
        fill: url(#linear-gradient-2);
      }

      .cls-3 {
        letter-spacing: -.07em;
      }

      .cls-4 {
        fill: url(#linear-gradient-4);
      }

      .cls-5 {
        fill: url(#linear-gradient-3);
      }

      .cls-6 {
        fill: url(#linear-gradient-5);
      }

      .cls-7 {
        fill: #fff;
        font-family: Erbaum-Medium, Erbaum;
        font-size: 15px;
        font-weight: 500;
      }

      .cls-8 {
        letter-spacing: -.1em;
      }

      .cls-9 {
        fill: url(#linear-gradient);
      }
    </style>
    <linearGradient id="linear-gradient" x1="470" y1="15" x2="610" y2="15" gradientUnits="userSpaceOnUse">
      <stop offset="0" stop-color="#000"/>
      <stop offset="1" stop-color="#000" stop-opacity=".3"/>
    </linearGradient>
    <linearGradient id="linear-gradient-2" x1="350" x2="480" xlink:href="#linear-gradient"/>
    <linearGradient id="linear-gradient-3" x1="230" x2="360" xlink:href="#linear-gradient"/>
    <linearGradient id="linear-gradient-4" x1="110" x2="240" xlink:href="#linear-gradient"/>
    <linearGradient id="linear-gradient-5" x1="0" x2="120" xlink:href="#linear-gradient"/>
  </defs>
  <g id="Layer_5" data-name="Layer 5">
    <g id="bo5">
      <polygon id="map5bg" class="gradientFill" points="470 0 535 0 610 0 610 15 610 30 535 30 470 30 480 15 470 0"/>
      <polygon id="map4bg" class="gradientFill" points="350 0 420 0 470 0 480 15 470 30 420 30 350 30 360 15 350 0"/>
      <polygon id="map3bg" class="gradientFill" points="230 0 290 0 350 0 360 15 350 30 290 30 230 30 240 15 230 0"/>
      <polygon id="map2bg" class="gradientFill" points="110 0 180 0 230 0 240 15 230 30 180 30 110 30 120 15 110 0"/>
      <polygon id="map1bg" class="gradientFill" points="0 0 60 0 110 0 120 15 110 30 60 30 0 30 0 15 0 0"/>
      <text id="text5" class="mapText" transform="translate(500.1 20.09)"><tspan x="0" y="0">FRACTURE</tspan></text>
      <text id="text4" class="mapText" transform="translate(380.1 20.09)"><tspan x="0" y="0">FRACTURE</tspan></text>
      <text id="text3" class="mapText" transform="translate(260.1 20.09)"><tspan x="0" y="0">FRACTURE</tspan></text>
      <text id="text2" class="mapText" transform="translate(140.1 20.09)"><tspan x="0" y="0">FRACTURE</tspan></text>
      <text id="text1" class="mapText" transform="translate(20.1 20.09)"><tspan x="0" y="0">FRACTURE</tspan></text>
    </g>
  </g>
</svg>