<?xml version="1.0" encoding="UTF-8"?>
<svg id="Layer_2" data-name="Layer 2" xmlns="http://www.w3.org/2000/svg" xmlns:xlink="http://www.w3.org/1999/xlink" viewBox="0 0 177.49 202.73">
  <defs>
    <style>
      .cls-1 {
        fill: #4d4d4d;
      }

      .cls-2 {
        fill: #fff;
      }

      .cls-3 {
        fill: gray;
      }

      .cls-4 {
        fill: url(#linear-gradient);
      }

      .cls-5 {
        font-size: 30px;
      }

      .cls-5, .cls-6 {
        font-family: Erbaum-Medium, Erbaum;
        font-weight: 500;
      }

      .cls-6 {
        font-size: 26px;
      }
    </style>
    <linearGradient id="linear-gradient" x1="-536.74" y1="22.75" x2="-408.3" y2="22.75" gradientTransform="translate(-367.02) rotate(-180) scale(1 -1)" gradientUnits="userSpaceOnUse">
      <stop offset="0" stop-color="#020202"/>
      <stop offset=".17" stop-color="#390101"/>
      <stop offset=".39" stop-color="#7e0101"/>
      <stop offset=".6" stop-color="#b50000"/>
      <stop offset=".78" stop-color="#d00"/>
      <stop offset=".91" stop-color="#f60000"/>
      <stop offset="1" stop-color="red"/>
    </linearGradient>
  </defs>
  <g id="Layer">
    <g id="bugR">
      <rect id="timeoutBox2R" x="104.47" y="41" width="44" height="8" transform="translate(252.93 90) rotate(180)"/>
      <rect id="timeoutBox1R" x="60.47" y="41" width="44" height="8" transform="translate(164.93 90) rotate(180)"/>
      <path id="timeoutFrameR" class="cls-3" d="M61.47,33h95v10.01c0,3.86-3.13,6.99-6.99,6.99H45.46c-.31,0-.62-.02-.92-.07l16.93-16.93ZM145.47,48c1.1,0,2-.9,2-2v-2c0-1.1-.9-2-2-2h-38.43l-1.27,6h39.7ZM61.47,46c0,1.1.9,2,2,2h38.21l1.28-6h-39.49c-1.1,0-2,.9-2,2v2Z"/>
      <polygon id="scoreBgSquareR" class="cls-2" points="31.47 62 3.47 33 32.47 3 61.47 32 31.47 62"/>
      <path id="mainColorR" class="cls-4" d="M63.37,36.09l-3.91,3.91h97l2.44-4.06c2.37-3.96,4.42-8.09,6.13-12.37.95-2.38,1.8-4.8,2.54-7.26l1.89-6.31.25-.25-4.25-4.25H41.28l22.1,22.11c2.34,2.34,2.34,6.14,0,8.48Z"/>
      <g id="scores">
        <text id="scoreR_0" class="cls-5" transform="translate(20.69 42.5)"><tspan x="0" y="0">0</tspan></text>
        <text id="scoreR_1" class="cls-5" transform="translate(22.07 92.5)"><tspan x="0" y="0">1</tspan></text>
        <text id="scoreR_2" class="cls-5" transform="translate(21.38 142.5)"><tspan x="0" y="0">2</tspan></text>
        <text id="scoreR_3" class="cls-5" transform="translate(21.5 192.5)"><tspan x="0" y="0">3</tspan></text>
      </g>
      <path id="mainFrameR" class="cls-1" d="M1.76,28.71L26.52,2.95l1.19-1.19c1.13-1.13,2.66-1.76,4.25-1.76h144.13c1.25,0,1.87,1.51.99,2.39l-7.36,7.36-4.25-4.25H41.28l22.1,22.11c2.34,2.34,2.34,6.14,0,8.48l-17.89,17.89-6.98,6.98-2.75,2.75c-2.34,2.34-6.14,2.34-8.48,0l-.76-.76L1.76,37.19c-2.34-2.34-2.34-6.14,0-8.48ZM6.3,35.83l22.34,23.34c.29.29.61.53.96.7,1.51.81,3.43.57,4.7-.7l24.34-24.34c1.56-1.56,1.56-4.1,0-5.66L35.3,5.83c-1.56-1.56-4.1-1.56-5.66,0l-.12.12L6.3,30.17c-1.56,1.56-1.56,4.1,0,5.66Z"/>
      <text id="slugR" class="cls-6" transform="translate(69.04 33.77)"><tspan x="0" y="0">SLUG</tspan></text>
    </g>
  </g>
</svg>